<svg width="24" height="25" viewBox="0 0 24 24" xmlns="http://www.w3.org/2000/svg"><path fill-rule="evenodd" clip-rule="evenodd" d="M5.51344 10.42C4.76678 10.42 4.12677 10.42 3.80677 10.3133C3.3801 10.2067 3.27342 9.88667 3.06009 8.92667C3.06009 4.34001 9.4601 3.70001 11.7001 3.70001C16.5001 3.70001 20.2334 5.62001 20.2334 9.46001C20.2334 9.78001 20.1268 9.99334 19.8068 10.2067C19.8068 10.3133 19.8068 10.3133 19.7001 10.3133L19.7 10.3134C19.5934 10.42 19.5934 10.42 19.4868 10.42C19.2735 10.5267 18.8469 10.5267 18.3136 10.5267H18.3134C17.7048 10.5267 16.9247 10.4838 16.3537 10.4524C16.0239 10.4343 15.7639 10.42 15.6468 10.42C14.5801 10.3133 13.7268 10.3133 13.0868 10.3133C12.0453 10.3133 11.5953 10.3697 11.1579 10.4245C10.7441 10.4763 10.3416 10.5267 9.46009 10.5267H9.45989C8.71323 10.5267 7.64662 10.5267 5.9401 10.42H5.51344ZM21.0868 11.2733C20.7668 11.4867 20.4468 11.7 19.9134 11.8067C19.8451 11.8067 19.7658 11.8176 19.658 11.8325C19.4294 11.8641 19.0726 11.9133 18.4201 11.9133C17.7667 11.9133 17.0332 11.8733 16.4649 11.8423C16.1055 11.8227 15.8121 11.8067 15.6468 11.8067C15.0457 11.8067 14.5124 11.7728 14.0468 11.7432H14.0468C13.6861 11.7203 13.3661 11.7 13.0868 11.7H13.0865C12.1267 11.7 11.8067 11.7 11.3801 11.8067C10.9534 11.9133 10.5268 11.9133 9.46009 11.9133C8.60676 11.9133 7.43343 11.9133 5.83343 11.8067H4.76676H4.76673C4.02007 11.8067 3.06011 11.8067 2.42012 11.1667C2.20678 11.5933 2.1001 12.1267 2.1001 12.7667C2.1001 15.22 5.08678 15.22 6.68678 15.22C7.56155 15.22 8.2533 15.2566 8.82637 15.2869H8.8264C9.23162 15.3084 9.5775 15.3267 9.88678 15.3267C10.8374 15.3267 11.319 15.2974 11.7772 15.2695C12.1931 15.2442 12.5896 15.22 13.3001 15.22H13.3003C14.047 15.22 15.1136 15.22 16.8201 15.3267H17.4601C18.5268 15.3267 20.0201 15.22 20.4468 14.9C21.3001 14.1533 21.8335 12.34 21.0868 11.2733ZM16.7134 16.7133C15.2201 16.6067 14.0468 16.6067 13.3001 16.6067H11.8068H9.88678H9.88653C9.03326 16.6067 8.07331 16.6067 6.68678 16.5H6.47344C5.72677 16.5 4.3401 16.3933 3.16676 15.9667V16.6067C3.27343 17.8867 4.12678 18.74 5.08678 19.2733C6.04678 19.7 7.00676 19.7 7.96676 19.7H8.07344H15.5401C16.6068 19.7 17.6734 19.7 18.7401 19.1667C19.5934 18.6333 20.3401 17.5667 20.4468 16.2867C19.9134 16.5 18.9534 16.6067 17.4601 16.6067C17.1401 16.7133 16.9268 16.7133 16.7134 16.7133Z"></path></svg>