<svg viewBox="0 0 220 240" fill="none" xmlns="http://www.w3.org/2000/svg" width="220" height="240">
    <title>Spill</title>
    <g clip-path="url(#spill)">
        <path d="M162.316 124.537C161.806 124.135 161.721 123.507 162.087 122.83C164.437 118.811 159.228 122.045 158.008 120.311C157.673 119.766 157.781 119.509 158.025 118.932C160.783 114.46 153.895 117.923 152.768 116.551C152.235 116.142 152.189 115.739 152.173 115.006C152.297 110.691 147.628 115.316 146.795 113.526C146.589 112.984 146.702 112.536 146.928 111.884C148.284 106.524 141.03 113.391 141.828 106.903C138.215 105.686 137.142 108.756 137.77 103.403C124.928 105.282 141.739 97.2189 128.449 100.058C127.162 100.438 126.664 99.4054 126.12 98.3965C125.158 96.7681 126.626 95.0664 125.663 93.4554C117.045 86.7313 116.084 82.1651 118.569 72.314C119.403 69.4617 120.087 66.7236 119.624 63.6838C118.483 56.5807 111.416 52.462 109.311 46.6577C107.983 42.4742 107.303 38.9422 107.515 35.7833C108.561 32.3625 111.296 28.3314 114.953 30.7082C118.152 33.7071 117.64 38.7693 119.607 42.5214C121.613 46.9618 124.812 48.271 127.101 50.4896C135.055 58.4721 133.387 64.4022 132.137 69.6847C129.586 77.2611 135.055 73.9715 137.228 80.6227C140.018 91.1233 154.962 87.9052 158.526 89.9629C169.366 94.8658 173.173 102.89 170.313 113.236C169.727 116.767 169.302 120.169 168.02 123.55C167.893 123.753 167.765 123.955 167.638 124.157C166.208 125.029 164.293 124.669 162.621 124.729C162.518 124.664 162.417 124.6 162.316 124.537Z" fill="#D72300"></path>
        <path d="M115.47 18.6913C110.407 25.4647 114.524 28.5012 110.905 28.5267C109.375 28.1889 109.89 24.9349 109.32 23.8429C106.089 17.9444 105.078 9.37763 108.224 6.73693C112.598 2.43414 117.912 4.8511 118.7 9.99625C118.961 13.1947 117.092 15.9994 115.45 18.6786C115.457 18.6833 115.462 18.6865 115.47 18.6913Z" fill="#D72300"></path>
        <path d="M102.977 15.7163C107.921 19.7318 108.503 35.5861 103.716 26.8079C90.6606 22.9994 95.8992 13.1575 102.977 15.7163Z" fill="#D72300"></path>
        <path d="M130.349 43.7465C127.253 48.1826 124.045 45.7598 125.146 42.8075C125.55 41.4069 125.278 39.775 126.574 38.6779C130.952 35.0761 132.853 40.3465 130.349 43.7465Z" fill="#D72300"></path>
        <path d="M120.341 32.021C118.234 30.9785 120.261 27.8672 122.228 28.1941C124.671 29.3876 122.911 33.7921 120.331 32.0362C120.335 32.0311 120.338 32.0261 120.341 32.021Z" fill="#D72300"></path>
        <path d="M177.964 135.641C177.811 135.884 177.658 136.127 177.506 136.37C175.422 139.033 172.451 140.964 169.73 143.159C165.8 147.188 161.504 150.71 158.668 155.698C145.832 179.537 143.884 177.355 134.331 190.91C132.295 194.491 130.16 198.145 127.842 201.641C124.688 207.96 120.301 213.669 117.831 220.465C115.871 224.761 115.787 229.591 113.277 233.725C110.705 236.356 109.626 233.335 109.084 230.994C108.271 229.992 106.421 233.366 105.064 232.432C101.974 231.371 106.229 226.584 102.126 229.209C101.786 229.415 101.441 229.469 100.962 229.507C97.3434 228.725 100.189 226.096 99.3887 225.286C98.5062 224.389 96.6568 226.045 95.3184 226.199C92.894 226.492 92.6022 224.537 93.8552 222.802C93.935 222.468 93.8202 222.297 93.4471 222.447C90.2884 224.783 88.3613 222.725 89.502 219.889C89.5815 219.639 89.593 219.357 89.1503 219.629C88.127 220.347 85.9475 220.565 86.0074 218.747C86.5151 217.4 87.5969 216.112 85.0679 217.143C80.5061 218.58 84.423 212.956 81.8938 214.072C81.3491 214.618 80.7292 215.082 79.8881 215.27C75.429 215.931 80.6724 209.673 76.3844 212.083C75.673 212.411 75.0758 212.823 74.1934 212.801C71.6132 212.039 73.1705 210.651 73.073 209.577C71.9276 209.171 66.7593 212.47 68.2492 207.755C68.2988 207.44 68.3076 207.213 67.8134 207.23C58.9947 210.1 65.6056 203.912 62.6937 204.974C61.6169 205.363 60.2716 206.408 59.395 205.204C58.5778 203.777 62.5673 200.866 57.3697 203.162C48.8 205.271 61.8279 193.45 63.2858 190.144C65.1072 187.224 65.7431 183.951 67.271 180.78C70.3707 174.346 74.3927 168.623 78.0927 162.446C83.061 154.022 86.9675 145.188 92.8195 137.21C95.1354 132.393 97.2215 127.689 99.4769 122.749C106.955 104.951 112.125 111.744 121.387 96.7893C122.155 95.9103 123.156 94.8111 124.576 94.7757C130.868 96.0253 123.993 101.011 131.448 98.7719C132.261 98.5952 133.138 98.5925 133.75 99.3477C134.84 100.7 132.498 103.433 133.58 103.316C142.719 101.3 136.242 106.962 138.356 106.477C146.028 104.718 140.292 109.97 143.028 109.686C152.066 107.505 144.744 114.213 148.154 113.379C154.957 110.871 151.59 115.888 153.6 116.57C157.101 116.326 160.958 114.799 158.309 120.067C158.716 120.397 159.537 120.034 160.16 120.031C168.689 118.675 158.362 125.555 165.421 124.227C170.992 123.542 167.551 127.045 169.233 127.788C172.458 128.422 175.64 127.53 173.207 132.196C174.633 133.745 179.644 130.573 177.964 135.641Z" fill="white"></path>
        <path d="M64.4462 198.551C64.0106 198.065 63.2364 197.843 62.7894 197.146C64.0387 195.024 66.6334 198.091 68.1072 198.817C70.4918 199.917 72.665 200.984 74.7441 202.806C78.425 204.937 81.8699 207.134 85.551 209.332C89.2315 211.851 92.9531 213.485 96.8666 215.667C99.5423 217.303 101.799 219.191 104.62 220.753C112.343 225.609 111.175 223.992 111.052 226.343C106.163 224.86 101.659 220.705 97.0009 217.995C85.9292 211.638 75.5908 204.781 64.4462 198.551Z" fill="#502314"></path>
        <path d="M125.083 104.261C127.734 106.605 130.787 108.768 133.767 110.779C146.566 118.66 157.771 128.633 170.622 136.561C172.335 140.997 157.068 129.218 156.202 128.67C140.353 116.645 132.536 112.693 123.493 105.089C123.56 104.539 123.844 103.408 125.083 104.261Z" fill="#502314"></path>
        <path d="M65.1528 195.407C65.2746 194.354 66.023 193.579 66.3619 192.462C66.5748 192.18 66.7331 191.934 66.9323 191.448C70.9572 184.255 74.4693 176.598 79.1779 169.62C79.3722 169.541 79.2992 169.259 79.5096 169.193C80.5875 167.355 81.8972 165.508 83.06 163.406C84.9717 161.263 86.312 158.514 87.8906 155.908C88.0165 155.814 88.0447 155.719 88.2733 155.221C88.3092 155.197 88.3704 155.162 88.456 155.11C88.4623 155.004 88.431 154.858 88.58 154.789C88.6021 154.686 88.6268 154.586 88.6556 154.455C89.0092 154.011 89.2001 153.404 89.6695 152.764C90.0421 151.728 91.1981 150.737 91.2769 149.562C95.2029 143.655 97.8133 136.899 101.059 130.535C103.711 126.088 105.388 124.239 109.43 120.229C112.011 117.61 114.619 115.034 117.38 112.349C118.181 111.445 121.43 107.348 122.685 106.705C137.783 117.002 152.519 128.059 168.062 137.99C168.36 138.385 165.051 139.815 162.958 141.932C160.679 144.412 158.726 147.16 156.81 149.922C155.941 151.175 154.905 152.379 154.217 153.725C153.443 155.242 152.625 156.739 151.766 158.213C150.111 161.047 148.218 163.688 146.451 166.437C144.815 168.983 143.139 171.503 141.424 173.995C138.63 178.057 135.717 182.033 132.781 185.991C130.4 189.2 127.998 192.397 125.757 195.709C123.653 198.82 121.708 202.043 120.041 205.412C119.52 206.465 119.036 207.533 118.558 208.601C117.141 211.782 115.962 215.144 113.877 218.151C113.104 219.532 111.448 224.136 110.065 222.575C96.4902 214.234 83.1807 206.071 69.3572 198.085C67.9497 197.423 66.5849 196.339 65.1528 195.407ZM110.238 220.612C111.923 218.616 112.746 216.128 114.089 213.779C115.14 211.49 116.247 209.275 117.439 206.801C117.398 206.552 117.658 206.419 117.667 206.192C118.504 204.619 119.325 202.775 120.377 201.101C121.697 198.653 123.136 196.096 124.914 193.728C133.91 182.114 142.014 169.875 150.373 157.511C155.359 149.877 157.281 143.588 165.236 138.101C155.648 132.319 146.552 125.697 137.552 118.913C132.445 115.766 127.707 112.304 122.783 108.76C121.139 109.832 119.924 111.461 118.613 113.042C113.083 119.833 106.464 124.351 103.169 130.669C95.2296 145.15 102.635 134.617 89.4378 157.022C87.3062 160.766 85.056 164.693 82.5093 168.317C76.9522 176.819 71.8534 185.725 67.3283 195.01C78.4702 201.543 89.8003 207.893 100.802 214.885C103.82 216.846 107.056 218.647 110.238 220.612Z" fill="#502314"></path>
        <path d="M104.943 192.681C105.192 190.876 105.884 193.485 107.46 191.667C107.792 190.108 122.123 179.699 116.349 178.44C115.073 177.511 119.929 175.854 116.444 172.48C117.731 173.755 118.163 170.947 119.533 170.563C129.551 171.145 124.851 172.033 118.596 184.584C116.504 187.227 110.839 202.933 106.105 197.78C104.482 196.23 103.643 194.249 104.944 192.679L104.943 192.681ZM105.991 192.698C105.956 192.652 105.991 192.698 105.849 192.598C105.883 192.644 105.846 192.597 105.991 192.698Z" fill="#D72300"></path>
        <path d="M100.198 174.245C100.53 174.683 94.5663 185.706 97.5171 187.028C95.2321 191.268 89.5947 189.449 90.2406 187.664C93.2568 178.821 99.0871 170.339 103.285 162.097C103.563 162.131 104.349 158.131 107.651 161.297C110.804 171.383 105.288 164.045 103.934 170.61C101.141 170.434 102.637 168.323 100.198 174.245Z" fill="#D72300"></path>
        <path d="M92.7702 195.274C85.8624 188.377 92.0756 190.773 95.5381 190.967C95.5051 192.798 96.4205 194.676 98.1012 195.549C99.3872 196.192 100.993 196.005 103.001 194.759C103.329 196.606 104.653 198.85 106.84 199.865C108.746 200.273 108.002 200.335 106.337 201.059C103.634 203.198 96.6582 196.716 92.7702 195.274Z" fill="#D72300"></path>
        <path d="M128.351 161.292C125.632 175.42 127.553 168.757 119.578 168.904C117.927 170.071 126.022 152.133 127.494 148.962C135.337 146.717 130.547 150.447 128.351 161.292Z" fill="#D72300"></path>
        <path d="M109.171 154.716C111.919 151.776 114.381 148.786 117.809 145.039C118.9 144.494 120.308 139.476 122.891 145.334C123.786 147.94 119.792 149.483 110.657 163.003C109.865 164.05 109.015 158.915 106.422 158.756C105.335 158.426 105.479 158.735 109.171 154.716Z" fill="#D72300"></path>
        <path d="M120.494 162.587C120.426 162.128 117.967 170.781 117.751 167.269C113.079 160.239 107.742 168.812 113.65 160.594C122.126 147.64 131.982 139.068 120.494 162.587Z" fill="#D72300"></path>
        <path d="M132.516 142.152C131.497 141.416 124.822 137.982 124.565 136.797C127.059 129.424 130.613 135.039 136.205 138.142C138.511 139.419 134.035 144.49 132.516 142.152ZM137.059 139.074C137.088 139.039 137.12 139.056 137.03 138.974C137.003 139.011 136.998 138.986 137.059 139.074Z" fill="#D72300"></path>
        <path d="M129.249 131.557C127.039 131.172 128.998 127.86 130.36 127.915C139.042 132.054 143.34 133.708 138.459 136.959C135.292 135.677 132.633 133.246 129.249 131.557Z" fill="#D72300"></path>
        <path d="M104.213 191.16C101.243 197.051 93.6566 193.926 98.4589 187.539C99.9431 188.405 102.14 189.938 104.213 191.16Z" fill="#D72300"></path>
        <path d="M109.762 168.17C108.763 164.882 119.807 163.848 115.277 171.962C115.107 170.426 111.69 169.474 109.762 168.17Z" fill="#D72300"></path>
        <path d="M102.704 187.47C99.8431 187.083 101.024 181.704 104.95 183.124C107.211 184.433 106.061 188.893 102.704 187.47Z" fill="#D72300"></path>
        <path d="M104.949 192.682C104.943 192.681 104.943 192.681 104.949 192.682C104.927 192.717 104.92 192.476 104.949 192.682Z" fill="#D72300"></path>
        <path d="M101.448 169.474C101.439 169.556 101.888 169.514 101.592 169.363C101.729 169.442 102.17 169.285 102.073 169.468C104.789 171.006 102.391 167.784 106.963 166.88C110.714 167.816 122.17 172.351 116.424 177.972C117.131 178.3 118.574 179.052 118.863 179.94C118.363 180.892 118.767 180.098 114.832 184.589C113.811 186.056 112.125 187.205 110.933 188.805C110.143 189.342 109.645 190.197 108.132 191.38C106.568 192.74 108.734 195.068 96.135 186.325C96.0659 184.948 97.0077 183.938 97.7666 180.122C97.8779 180.068 97.8847 180.136 98.2329 178.718C98.9732 176.805 100.372 172.812 101.448 169.474ZM113.89 178.584C113.881 178.19 113.08 177.965 114.415 176.875C117.842 175.138 114.228 172.093 110.834 170.146C106.934 168.28 106.548 168.489 104.123 172.369C102.14 171.493 102.735 171.119 102.031 173.619C101.909 173.747 101.877 173.892 101.724 174.382C101.797 174.474 101.52 174.684 101.023 176.619C100.843 177.109 100.467 177.857 100.329 178.571C99.5382 180.205 98.8469 183.454 98.1752 185.392C98.0779 185.782 98.6203 186.042 102.354 188.425C106.411 190.711 105.406 191.815 109.35 186.928C109.218 187.222 110.055 186.256 111.552 184.526C111.483 184.607 111.615 184.651 111.582 184.708C111.458 184.221 115.212 181.504 115.946 179.517C115.514 179.446 115.019 178.927 113.89 178.584Z" fill="#198737"></path>
        <path d="M123.491 137.875C124.71 136.151 123.325 135.912 134.438 142.828C134.86 142.627 132.482 148.852 131.946 149.231C130.456 148.986 124.899 150.968 123.002 147.168C122.568 147.301 123.91 146.384 120.484 143.556C118.847 142.71 121.674 140.592 121.921 139.986C121.953 139.66 122.719 139.256 122.857 138.739C122.829 138.761 122.816 138.77 122.805 138.781C122.908 138.546 123.725 137.751 123.491 137.875Z" fill="#198737"></path>
        <path d="M104.497 182.43C105.338 181.587 107.675 184.464 104.838 184.127C104.401 183.968 103.603 183.735 104.489 182.432C104.375 182.562 104.884 182.342 104.497 182.43Z" fill="#198737"></path>
    </g>
    <defs>
        <clipPath id="spill">
            <rect width="131.961" height="200" fill="white" transform="translate(107.368) rotate(32.1583)"></rect>
        </clipPath>
    </defs>
</svg>